<?xml version="1.0" encoding="utf-8"?>
<!-- Svg Vector Icons : http://www.onlinewebfonts.com/icon -->
<!DOCTYPE svg PUBLIC "-//W3C//DTD SVG 1.1//EN" "http://www.w3.org/Graphics/SVG/1.1/DTD/svg11.dtd">
<svg version="1.1" xmlns="http://www.w3.org/2000/svg" xmlns:xlink="http://www.w3.org/1999/xlink" x="0px" y="0px" viewBox="0 0 256 256" enable-background="new 0 0 256 256" xml:space="preserve">
<metadata> Svg Vector Icons : http://www.onlinewebfonts.com/icon </metadata>
<g><g><g><path fill="#000000" d="M17.4,53.6c-1.3,0.6-3.1,1.8-4,2.8c-3.6,3.9-3.4-0.1-3.4,71.7c0,62.2,0.1,65.8,1.1,68c1.4,3,4.7,6,7.6,6.7c3.1,0.9,215.5,0.9,218.7,0c2.9-0.8,6.2-3.7,7.6-6.7c1.1-2.2,1.1-5.8,1.1-68.1c0-62.4-0.1-65.9-1.1-68.1c-1.4-3-4.7-6-7.6-6.7c-1.5-0.5-36.6-0.6-109.9-0.6C23.9,52.5,19.6,52.5,17.4,53.6z M235.9,62.6c1,1,1,129.7,0,130.7c-1,1-214.7,1-215.7,0c-1-1-1-129.7,0-130.7C21.2,61.6,234.8,61.6,235.9,62.6z"/><path fill="#000000" d="M65.1,72.5C56.4,75.7,50.4,83.3,49.7,92c-0.2,2.7-0.7,4.4-1.7,5.6c-2.1,2.8-2.9,6.7-2,10.3c0.7,2.9,3.8,8.3,4.7,8.3c0.3,0,1.5,1.7,2.7,3.8c2.7,5,7.1,9.3,11.7,11.6c3.2,1.7,4.2,1.9,8.1,1.9c3.7,0.1,5-0.2,7.9-1.7c4.2-2.1,9.5-7.2,11.8-11.6c1-1.8,2.3-3.7,3-4.2c1.8-1.4,4.2-6.3,4.7-9.4c0.5-3.2-0.4-7-2.3-9.2c-1-1.2-1.4-2.7-1.7-5.7C96,84,91,77.1,83.3,73.3C78.8,71.1,69.8,70.7,65.1,72.5z M78.1,80.9c3.3,1,8.3,5.9,9.1,9c0.4,1.3,0.7,4.4,0.7,6.8c0,4.4,0.1,4.5,1.7,5.3c0.9,0.4,1.9,1.2,2.1,1.9c0.4,1.8-1.1,5.1-2.8,5.8c-0.9,0.5-1.9,1.8-2.8,4c-1.7,4.2-6.3,9-10,10.4c-2.7,1-3,1-5.6,0c-4.6-1.8-9.4-7.1-10.6-11.7c-0.2-0.9-1.1-1.9-2.1-2.4c-2-1.1-2.9-2.5-2.9-5c0-1.4,0.4-2.1,1.8-2.8c1.7-0.9,1.8-1.1,1.8-5.4c0-2.4,0.3-5.4,0.7-6.8c0.9-3,5.8-8.1,8.7-9C70.7,80.1,75.2,80.1,78.1,80.9z"/><path fill="#000000" d="M132.7,90.2v4.7h40.1H213v-4.7v-4.7h-40.1h-40.1V90.2z"/><path fill="#000000" d="M132.7,128v4.7h40.1H213V128v-4.7h-40.1h-40.1V128z"/><path fill="#000000" d="M54.4,138.6c-10.2,3.6-14.9,6-18.5,9.3c-2.8,2.5-3.2,3.4-5.4,9.9c-3.8,11.1-3.4,16.9,1.7,21.7c3.8,3.7,3,3.6,40.9,3.5c39,0,37.6,0.2,41.8-4.6c2.2-2.4,3.7-5.8,3.7-8.3c0-1.6-2.8-12-4.2-15.9c-0.6-1.8-2.1-4.3-3.2-5.5c-2.7-2.9-11.1-7.2-20.3-10.3l-6.8-2.3l-3.5,2.4c-3.2,2.1-3.8,2.3-7.4,2.3c-3.7,0-4.2-0.2-7.4-2.4l-3.4-2.4L54.4,138.6z M64.1,147.8c6,3.1,12,3.1,18.4-0.1l3.1-1.6l4.8,1.7c7.2,2.5,13.8,6.1,14.8,8c0.5,0.9,1.7,4.5,2.7,8c1.6,5.7,1.7,6.4,0.9,8c-0.5,0.9-1.3,1.8-1.8,2c-1.7,0.6-67,0.4-68.1-0.2c-2.1-1.1-2.4-3.7-1.1-8.6c2.4-9.2,3.4-10.8,7.9-13.2c3.5-1.8,13.2-5.4,14.6-5.4C60.8,146.3,62.5,146.9,64.1,147.8z"/><path fill="#000000" d="M132.7,165.8v4.7h40.1H213v-4.7V161h-40.1h-40.1V165.8z"/></g></g></g>
</svg>