<?xml version="1.0" standalone="no"?>
<!DOCTYPE svg PUBLIC "-//W3C//DTD SVG 20010904//EN"
 "http://www.w3.org/TR/2001/REC-SVG-20010904/DTD/svg10.dtd">
<svg version="1.0" xmlns="http://www.w3.org/2000/svg"
 width="1600.000000pt" height="1600.000000pt" viewBox="0 0 1600.000000 1600.000000"
 preserveAspectRatio="xMidYMid meet">

<g transform="translate(0.000000,1600.000000) scale(0.100000,-0.100000)"
fill="#000000" stroke="none">
<path d="M2390 15039 c-909 -45 -1603 -572 -1730 -1314 -53 -308 -2 -637 139
-913 260 -505 813 -849 1483 -921 122 -14 405 -14 523 -1 369 41 692 155 970
343 119 80 331 294 406 407 115 174 186 345 230 550 32 149 32 392 1 537 -95
438 -355 793 -757 1034 -258 155 -624 262 -940 275 -66 3 -133 6 -150 7 -16 2
-95 0 -175 -4z"/>
<path d="M870 11226 c-93 -25 -162 -86 -207 -181 l-28 -60 -3 -4620 c-2 -3176
1 -4641 8 -4688 18 -117 76 -199 176 -248 l49 -24 1675 0 1675 0 47 23 c67 33
134 104 158 169 20 54 20 66 20 4727 l0 4673 -30 61 c-35 69 -92 125 -159 156
l-46 21 -1645 2 c-1279 1 -1655 -1 -1690 -11z"/>
<path d="M5645 11231 c-87 -21 -166 -83 -210 -162 l-30 -54 -3 -4680 c-2
-4344 -1 -4683 15 -4730 12 -36 33 -67 77 -111 104 -104 -57 -95 1666 -92
l1505 3 43 23 c66 35 119 88 149 150 l28 57 5 2600 6 2600 21 92 c46 192 115
352 220 512 70 105 258 296 365 369 158 108 356 191 545 229 138 28 425 25
562 -5 583 -130 1003 -562 1117 -1152 18 -90 19 -221 24 -2675 l5 -2580 23
-47 c30 -60 90 -120 150 -150 l47 -23 1499 -3 c960 -1 1511 1 1535 8 57 15
127 65 165 117 73 100 67 -156 64 3053 -4 3168 0 2948 -64 3369 -144 958 -531
1780 -1109 2356 -250 249 -502 431 -812 585 -625 310 -1393 417 -2183 304
-611 -88 -1234 -327 -1757 -674 l-102 -68 -3 267 c-4 225 -7 273 -22 313 -25
66 -95 141 -164 175 l-57 28 -1645 2 c-905 0 -1658 -2 -1675 -6z"/>
</g>
</svg>
